<svg xmlns="http://www.w3.org/2000/svg" viewBox="0 0 160 160" width="160" height="160" shape-rendering="crispEdges" role="img" aria-label="PixelScript pixel art"><rect x="20" y="0" width="20" height="20" fill="rgb(255, 255, 255)" /><rect x="80" y="0" width="20" height="20" fill="rgb(255, 255, 255)" /><rect x="20" y="20" width="80" height="20" fill="rgb(255, 255, 255)" /><rect x="0" y="40" width="20" height="20" fill="rgb(255, 255, 255)" /><rect x="20" y="40" width="80" height="20" fill="rgb(255, 185, 168)" /><rect x="100" y="40" width="20" height="20" fill="rgb(255, 255, 255)" /><rect x="0" y="60" width="20" height="20" fill="rgb(255, 255, 255)" /><rect x="20" y="60" width="20" height="20" fill="rgb(255, 185, 168)" /><rect x="40" y="60" width="20" height="20" fill="rgb(31, 31, 31)" /><rect x="60" y="60" width="20" height="20" fill="rgb(255, 185, 168)" /><rect x="80" y="60" width="20" height="20" fill="rgb(31, 31, 31)" /><rect x="100" y="60" width="20" height="20" fill="rgb(255, 185, 168)" /><rect x="120" y="60" width="20" height="20" fill="rgb(255, 255, 255)" /><rect x="0" y="80" width="20" height="20" fill="rgb(255, 255, 255)" /><rect x="20" y="80" width="100" height="20" fill="rgb(255, 185, 168)" /><rect x="120" y="80" width="20" height="20" fill="rgb(255, 255, 255)" /><rect x="20" y="100" width="20" height="20" fill="rgb(255, 255, 255)" /><rect x="40" y="100" width="20" height="20" fill="rgb(255, 185, 168)" /><rect x="60" y="100" width="40" height="20" fill="rgb(255, 224, 138)" /><rect x="100" y="100" width="20" height="20" fill="rgb(255, 255, 255)" /><rect x="40" y="120" width="20" height="20" fill="rgb(255, 255, 255)" /><rect x="60" y="120" width="40" height="20" fill="rgb(255, 224, 138)" /><rect x="100" y="120" width="20" height="20" fill="rgb(255, 255, 255)" /><rect x="60" y="140" width="40" height="20" fill="rgb(255, 255, 255)" /></svg>
