<svg xmlns="http://www.w3.org/2000/svg" viewBox="0 0 144 144" width="144" height="144" shape-rendering="crispEdges" role="img" aria-label="PixelScript pixel art"><rect x="36" y="0" width="72" height="18" fill="rgb(255, 255, 255)" /><rect x="18" y="18" width="18" height="18" fill="rgb(255, 255, 255)" /><rect x="36" y="18" width="72" height="18" fill="rgb(217, 255, 245)" /><rect x="108" y="18" width="18" height="18" fill="rgb(255, 255, 255)" /><rect x="0" y="36" width="18" height="18" fill="rgb(255, 255, 255)" /><rect x="18" y="36" width="18" height="18" fill="rgb(217, 255, 245)" /><rect x="36" y="36" width="18" height="18" fill="rgb(31, 31, 31)" /><rect x="54" y="36" width="36" height="18" fill="rgb(217, 255, 245)" /><rect x="90" y="36" width="18" height="18" fill="rgb(31, 31, 31)" /><rect x="108" y="36" width="18" height="18" fill="rgb(217, 255, 245)" /><rect x="126" y="36" width="18" height="18" fill="rgb(255, 255, 255)" /><rect x="0" y="54" width="18" height="18" fill="rgb(255, 255, 255)" /><rect x="18" y="54" width="108" height="18" fill="rgb(217, 255, 245)" /><rect x="126" y="54" width="18" height="18" fill="rgb(255, 255, 255)" /><rect x="0" y="72" width="18" height="18" fill="rgb(255, 255, 255)" /><rect x="18" y="72" width="108" height="18" fill="rgb(217, 255, 245)" /><rect x="126" y="72" width="18" height="18" fill="rgb(255, 255, 255)" /><rect x="0" y="90" width="36" height="18" fill="rgb(255, 255, 255)" /><rect x="36" y="90" width="18" height="18" fill="rgb(217, 255, 245)" /><rect x="54" y="90" width="36" height="18" fill="rgb(255, 255, 255)" /><rect x="90" y="90" width="18" height="18" fill="rgb(217, 255, 245)" /><rect x="108" y="90" width="36" height="18" fill="rgb(255, 255, 255)" /><rect x="0" y="108" width="18" height="18" fill="rgb(255, 255, 255)" /><rect x="36" y="108" width="18" height="18" fill="rgb(255, 255, 255)" /><rect x="90" y="108" width="18" height="18" fill="rgb(255, 255, 255)" /><rect x="126" y="108" width="18" height="18" fill="rgb(255, 255, 255)" /></svg>
