<svg xmlns="http://www.w3.org/2000/svg" viewBox="0 0 384 224" width="384" height="224" shape-rendering="crispEdges" role="img" aria-label="PixelScript pixel art"><rect x="0" y="0" width="384" height="16" fill="rgb(10, 28, 82)" /><rect x="0" y="16" width="32" height="16" fill="rgb(10, 28, 82)" /><rect x="32" y="16" width="48" height="16" fill="rgb(255, 224, 138)" /><rect x="80" y="16" width="304" height="16" fill="rgb(10, 28, 82)" /><rect x="0" y="32" width="16" height="16" fill="rgb(10, 28, 82)" /><rect x="16" y="32" width="80" height="16" fill="rgb(255, 224, 138)" /><rect x="96" y="32" width="64" height="16" fill="rgb(10, 28, 82)" /><rect x="160" y="32" width="16" height="16" fill="rgb(255, 224, 138)" /><rect x="176" y="32" width="208" height="16" fill="rgb(10, 28, 82)" /><rect x="0" y="48" width="16" height="16" fill="rgb(10, 28, 82)" /><rect x="16" y="48" width="80" height="16" fill="rgb(255, 224, 138)" /><rect x="96" y="48" width="48" height="16" fill="rgb(10, 28, 82)" /><rect x="144" y="48" width="48" height="16" fill="rgb(255, 224, 138)" /><rect x="192" y="48" width="192" height="16" fill="rgb(10, 28, 82)" /><rect x="0" y="64" width="16" height="16" fill="rgb(10, 28, 82)" /><rect x="16" y="64" width="48" height="16" fill="rgb(255, 224, 138)" /><rect x="64" y="64" width="16" height="16" fill="rgb(255, 255, 255)" /><rect x="80" y="64" width="16" height="16" fill="rgb(255, 224, 138)" /><rect x="96" y="64" width="64" height="16" fill="rgb(10, 28, 82)" /><rect x="160" y="64" width="16" height="16" fill="rgb(255, 224, 138)" /><rect x="176" y="64" width="128" height="16" fill="rgb(10, 28, 82)" /><rect x="304" y="64" width="16" height="16" fill="rgb(255, 255, 255)" /><rect x="320" y="64" width="64" height="16" fill="rgb(10, 28, 82)" /><rect x="0" y="80" width="32" height="16" fill="rgb(10, 28, 82)" /><rect x="32" y="80" width="16" height="16" fill="rgb(255, 224, 138)" /><rect x="48" y="80" width="16" height="16" fill="rgb(217, 255, 245)" /><rect x="64" y="80" width="16" height="16" fill="rgb(255, 224, 138)" /><rect x="80" y="80" width="208" height="16" fill="rgb(10, 28, 82)" /><rect x="288" y="80" width="48" height="16" fill="rgb(255, 255, 255)" /><rect x="336" y="80" width="48" height="16" fill="rgb(10, 28, 82)" /><rect x="0" y="96" width="16" height="16" fill="rgb(10, 28, 82)" /><rect x="16" y="96" width="16" height="16" fill="rgb(255, 224, 138)" /><rect x="32" y="96" width="16" height="16" fill="rgb(255, 255, 255)" /><rect x="48" y="96" width="32" height="16" fill="rgb(10, 28, 82)" /><rect x="80" y="96" width="16" height="16" fill="rgb(255, 255, 255)" /><rect x="96" y="96" width="64" height="16" fill="rgb(10, 28, 82)" /><rect x="160" y="96" width="32" height="16" fill="rgb(255, 255, 255)" /><rect x="192" y="96" width="80" height="16" fill="rgb(10, 28, 82)" /><rect x="272" y="96" width="64" height="16" fill="rgb(255, 255, 255)" /><rect x="336" y="96" width="48" height="16" fill="rgb(10, 28, 82)" /><rect x="0" y="112" width="16" height="16" fill="rgb(255, 224, 138)" /><rect x="16" y="112" width="16" height="16" fill="rgb(10, 28, 82)" /><rect x="32" y="112" width="64" height="16" fill="rgb(255, 255, 255)" /><rect x="96" y="112" width="64" height="16" fill="rgb(10, 28, 82)" /><rect x="160" y="112" width="32" height="16" fill="rgb(255, 224, 138)" /><rect x="192" y="112" width="64" height="16" fill="rgb(10, 28, 82)" /><rect x="256" y="112" width="16" height="16" fill="rgb(255, 255, 255)" /><rect x="272" y="112" width="64" height="16" fill="rgb(217, 255, 245)" /><rect x="336" y="112" width="16" height="16" fill="rgb(255, 255, 255)" /><rect x="352" y="112" width="32" height="16" fill="rgb(10, 28, 82)" /><rect x="0" y="128" width="16" height="16" fill="rgb(10, 28, 82)" /><rect x="16" y="128" width="16" height="16" fill="rgb(255, 255, 255)" /><rect x="32" y="128" width="64" height="16" fill="rgb(255, 185, 168)" /><rect x="96" y="128" width="16" height="16" fill="rgb(255, 255, 255)" /><rect x="112" y="128" width="48" height="16" fill="rgb(10, 28, 82)" /><rect x="160" y="128" width="32" height="16" fill="rgb(255, 255, 255)" /><rect x="192" y="128" width="48" height="16" fill="rgb(10, 28, 82)" /><rect x="240" y="128" width="16" height="16" fill="rgb(255, 255, 255)" /><rect x="256" y="128" width="16" height="16" fill="rgb(217, 255, 245)" /><rect x="272" y="128" width="16" height="16" fill="rgb(31, 31, 31)" /><rect x="288" y="128" width="32" height="16" fill="rgb(217, 255, 245)" /><rect x="320" y="128" width="16" height="16" fill="rgb(31, 31, 31)" /><rect x="336" y="128" width="16" height="16" fill="rgb(217, 255, 245)" /><rect x="352" y="128" width="16" height="16" fill="rgb(255, 255, 255)" /><rect x="368" y="128" width="16" height="16" fill="rgb(10, 28, 82)" /><rect x="0" y="144" width="16" height="16" fill="rgb(87, 200, 77)" /><rect x="16" y="144" width="16" height="16" fill="rgb(255, 255, 255)" /><rect x="32" y="144" width="16" height="16" fill="rgb(255, 185, 168)" /><rect x="48" y="144" width="16" height="16" fill="rgb(31, 31, 31)" /><rect x="64" y="144" width="16" height="16" fill="rgb(255, 185, 168)" /><rect x="80" y="144" width="16" height="16" fill="rgb(31, 31, 31)" /><rect x="96" y="144" width="16" height="16" fill="rgb(255, 185, 168)" /><rect x="112" y="144" width="16" height="16" fill="rgb(255, 255, 255)" /><rect x="128" y="144" width="16" height="16" fill="rgb(87, 200, 77)" /><rect x="144" y="144" width="16" height="16" fill="rgb(155, 99, 0)" /><rect x="160" y="144" width="48" height="16" fill="rgb(27, 200, 175)" /><rect x="208" y="144" width="16" height="16" fill="rgb(155, 99, 0)" /><rect x="224" y="144" width="16" height="16" fill="rgb(87, 200, 77)" /><rect x="240" y="144" width="16" height="16" fill="rgb(255, 255, 255)" /><rect x="256" y="144" width="96" height="16" fill="rgb(217, 255, 245)" /><rect x="352" y="144" width="16" height="16" fill="rgb(255, 255, 255)" /><rect x="368" y="144" width="16" height="16" fill="rgb(87, 200, 77)" /><rect x="0" y="160" width="16" height="16" fill="rgb(27, 200, 175)" /><rect x="16" y="160" width="16" height="16" fill="rgb(255, 255, 255)" /><rect x="32" y="160" width="80" height="16" fill="rgb(255, 185, 168)" /><rect x="112" y="160" width="16" height="16" fill="rgb(255, 255, 255)" /><rect x="128" y="160" width="16" height="16" fill="rgb(155, 99, 0)" /><rect x="144" y="160" width="16" height="16" fill="rgb(27, 200, 175)" /><rect x="160" y="160" width="48" height="16" fill="rgb(148, 79, 240)" /><rect x="208" y="160" width="16" height="16" fill="rgb(27, 200, 175)" /><rect x="224" y="160" width="16" height="16" fill="rgb(155, 99, 0)" /><rect x="240" y="160" width="16" height="16" fill="rgb(255, 255, 255)" /><rect x="256" y="160" width="96" height="16" fill="rgb(217, 255, 245)" /><rect x="352" y="160" width="16" height="16" fill="rgb(255, 255, 255)" /><rect x="368" y="160" width="16" height="16" fill="rgb(79, 141, 255)" /><rect x="0" y="176" width="16" height="16" fill="rgb(27, 200, 175)" /><rect x="16" y="176" width="16" height="16" fill="rgb(79, 141, 255)" /><rect x="32" y="176" width="16" height="16" fill="rgb(255, 255, 255)" /><rect x="48" y="176" width="16" height="16" fill="rgb(255, 185, 168)" /><rect x="64" y="176" width="32" height="16" fill="rgb(255, 224, 138)" /><rect x="96" y="176" width="16" height="16" fill="rgb(255, 255, 255)" /><rect x="112" y="176" width="16" height="16" fill="rgb(79, 141, 255)" /><rect x="128" y="176" width="16" height="16" fill="rgb(155, 99, 0)" /><rect x="144" y="176" width="16" height="16" fill="rgb(27, 200, 175)" /><rect x="160" y="176" width="48" height="16" fill="rgb(148, 79, 240)" /><rect x="208" y="176" width="16" height="16" fill="rgb(27, 200, 175)" /><rect x="224" y="176" width="16" height="16" fill="rgb(155, 99, 0)" /><rect x="240" y="176" width="32" height="16" fill="rgb(255, 255, 255)" /><rect x="272" y="176" width="16" height="16" fill="rgb(217, 255, 245)" /><rect x="288" y="176" width="32" height="16" fill="rgb(255, 255, 255)" /><rect x="320" y="176" width="16" height="16" fill="rgb(217, 255, 245)" /><rect x="336" y="176" width="32" height="16" fill="rgb(255, 255, 255)" /><rect x="368" y="176" width="16" height="16" fill="rgb(79, 141, 255)" /><rect x="0" y="192" width="16" height="16" fill="rgb(27, 200, 175)" /><rect x="16" y="192" width="16" height="16" fill="rgb(79, 141, 255)" /><rect x="32" y="192" width="16" height="16" fill="rgb(27, 200, 175)" /><rect x="48" y="192" width="16" height="16" fill="rgb(255, 255, 255)" /><rect x="64" y="192" width="32" height="16" fill="rgb(255, 224, 138)" /><rect x="96" y="192" width="16" height="16" fill="rgb(255, 255, 255)" /><rect x="112" y="192" width="16" height="16" fill="rgb(79, 141, 255)" /><rect x="128" y="192" width="16" height="16" fill="rgb(27, 200, 175)" /><rect x="144" y="192" width="16" height="16" fill="rgb(155, 99, 0)" /><rect x="160" y="192" width="48" height="16" fill="rgb(27, 200, 175)" /><rect x="208" y="192" width="16" height="16" fill="rgb(155, 99, 0)" /><rect x="224" y="192" width="16" height="16" fill="rgb(27, 200, 175)" /><rect x="240" y="192" width="16" height="16" fill="rgb(255, 255, 255)" /><rect x="256" y="192" width="16" height="16" fill="rgb(27, 200, 175)" /><rect x="272" y="192" width="16" height="16" fill="rgb(255, 255, 255)" /><rect x="288" y="192" width="16" height="16" fill="rgb(27, 200, 175)" /><rect x="304" y="192" width="16" height="16" fill="rgb(79, 141, 255)" /><rect x="320" y="192" width="16" height="16" fill="rgb(255, 255, 255)" /><rect x="336" y="192" width="16" height="16" fill="rgb(79, 141, 255)" /><rect x="352" y="192" width="16" height="16" fill="rgb(255, 255, 255)" /><rect x="368" y="192" width="16" height="16" fill="rgb(79, 141, 255)" /><rect x="0" y="208" width="16" height="16" fill="rgb(27, 200, 175)" /><rect x="16" y="208" width="16" height="16" fill="rgb(79, 141, 255)" /><rect x="32" y="208" width="16" height="16" fill="rgb(27, 200, 175)" /><rect x="48" y="208" width="16" height="16" fill="rgb(79, 141, 255)" /><rect x="64" y="208" width="32" height="16" fill="rgb(255, 255, 255)" /><rect x="96" y="208" width="16" height="16" fill="rgb(27, 200, 175)" /><rect x="112" y="208" width="16" height="16" fill="rgb(79, 141, 255)" /><rect x="128" y="208" width="16" height="16" fill="rgb(27, 200, 175)" /><rect x="144" y="208" width="16" height="16" fill="rgb(79, 141, 255)" /><rect x="160" y="208" width="32" height="16" fill="rgb(155, 99, 0)" /><rect x="192" y="208" width="16" height="16" fill="rgb(27, 200, 175)" /><rect x="208" y="208" width="16" height="16" fill="rgb(79, 141, 255)" /><rect x="224" y="208" width="16" height="16" fill="rgb(27, 200, 175)" /><rect x="240" y="208" width="16" height="16" fill="rgb(79, 141, 255)" /><rect x="256" y="208" width="16" height="16" fill="rgb(27, 200, 175)" /><rect x="272" y="208" width="16" height="16" fill="rgb(79, 141, 255)" /><rect x="288" y="208" width="16" height="16" fill="rgb(27, 200, 175)" /><rect x="304" y="208" width="16" height="16" fill="rgb(79, 141, 255)" /><rect x="320" y="208" width="16" height="16" fill="rgb(27, 200, 175)" /><rect x="336" y="208" width="16" height="16" fill="rgb(79, 141, 255)" /><rect x="352" y="208" width="16" height="16" fill="rgb(27, 200, 175)" /><rect x="368" y="208" width="16" height="16" fill="rgb(79, 141, 255)" /></svg>
