<svg xmlns="http://www.w3.org/2000/svg" viewBox="0 0 224 224" width="224" height="224" shape-rendering="crispEdges" role="img" aria-label="PixelScript pixel art"><rect x="28" y="0" width="28" height="28" fill="rgb(255, 255, 255)" /><rect x="56" y="0" width="28" height="28" fill="rgb(245, 245, 245)" /><rect x="84" y="0" width="28" height="28" fill="rgb(217, 217, 217)" /><rect x="112" y="0" width="28" height="28" fill="rgb(189, 189, 189)" /><rect x="140" y="0" width="28" height="28" fill="rgb(143, 143, 143)" /><rect x="168" y="0" width="28" height="28" fill="rgb(97, 97, 97)" /><rect x="196" y="0" width="28" height="28" fill="rgb(58, 58, 58)" /><rect x="0" y="28" width="28" height="28" fill="rgb(31, 31, 31)" /><rect x="28" y="28" width="28" height="28" fill="rgb(0, 0, 0)" /><rect x="56" y="28" width="28" height="28" fill="rgb(255, 226, 220)" /><rect x="84" y="28" width="28" height="28" fill="rgb(255, 185, 168)" /><rect x="112" y="28" width="28" height="28" fill="rgb(255, 139, 107)" /><rect x="140" y="28" width="28" height="28" fill="rgb(255, 93, 56)" /><rect x="168" y="28" width="28" height="28" fill="rgb(230, 59, 31)" /><rect x="196" y="28" width="28" height="28" fill="rgb(185, 42, 20)" /><rect x="0" y="56" width="28" height="28" fill="rgb(127, 26, 11)" /><rect x="28" y="56" width="28" height="28" fill="rgb(77, 13, 5)" /><rect x="56" y="56" width="28" height="28" fill="rgb(42, 5, 2)" /><rect x="84" y="56" width="28" height="28" fill="rgb(255, 243, 204)" /><rect x="112" y="56" width="28" height="28" fill="rgb(255, 224, 138)" /><rect x="140" y="56" width="28" height="28" fill="rgb(255, 202, 69)" /><rect x="168" y="56" width="28" height="28" fill="rgb(245, 173, 13)" /><rect x="196" y="56" width="28" height="28" fill="rgb(202, 133, 0)" /><rect x="0" y="84" width="28" height="28" fill="rgb(155, 99, 0)" /><rect x="28" y="84" width="28" height="28" fill="rgb(109, 69, 0)" /><rect x="56" y="84" width="28" height="28" fill="rgb(67, 42, 0)" /><rect x="84" y="84" width="28" height="28" fill="rgb(38, 23, 0)" /><rect x="112" y="84" width="28" height="28" fill="rgb(231, 255, 217)" /><rect x="140" y="84" width="28" height="28" fill="rgb(197, 245, 162)" /><rect x="168" y="84" width="28" height="28" fill="rgb(146, 227, 107)" /><rect x="196" y="84" width="28" height="28" fill="rgb(87, 200, 77)" /><rect x="0" y="112" width="28" height="28" fill="rgb(47, 158, 68)" /><rect x="28" y="112" width="28" height="28" fill="rgb(30, 116, 50)" /><rect x="56" y="112" width="28" height="28" fill="rgb(20, 82, 38)" /><rect x="84" y="112" width="28" height="28" fill="rgb(13, 51, 24)" /><rect x="112" y="112" width="28" height="28" fill="rgb(6, 29, 13)" /><rect x="140" y="112" width="28" height="28" fill="rgb(217, 255, 245)" /><rect x="168" y="112" width="28" height="28" fill="rgb(159, 245, 230)" /><rect x="196" y="112" width="28" height="28" fill="rgb(92, 227, 207)" /><rect x="0" y="140" width="28" height="28" fill="rgb(27, 200, 175)" /><rect x="28" y="140" width="28" height="28" fill="rgb(15, 158, 137)" /><rect x="56" y="140" width="28" height="28" fill="rgb(10, 118, 103)" /><rect x="84" y="140" width="28" height="28" fill="rgb(8, 82, 75)" /><rect x="112" y="140" width="28" height="28" fill="rgb(5, 51, 47)" /><rect x="140" y="140" width="28" height="28" fill="rgb(2, 28, 25)" /><rect x="168" y="140" width="28" height="28" fill="rgb(220, 235, 255)" /><rect x="196" y="140" width="28" height="28" fill="rgb(174, 207, 255)" /><rect x="0" y="168" width="28" height="28" fill="rgb(125, 177, 255)" /><rect x="28" y="168" width="28" height="28" fill="rgb(79, 141, 255)" /><rect x="56" y="168" width="28" height="28" fill="rgb(47, 99, 224)" /><rect x="84" y="168" width="28" height="28" fill="rgb(29, 69, 184)" /><rect x="112" y="168" width="28" height="28" fill="rgb(18, 46, 133)" /><rect x="140" y="168" width="28" height="28" fill="rgb(10, 28, 82)" /><rect x="168" y="168" width="28" height="28" fill="rgb(5, 14, 41)" /><rect x="196" y="168" width="28" height="28" fill="rgb(240, 221, 255)" /><rect x="0" y="196" width="28" height="28" fill="rgb(214, 175, 255)" /><rect x="28" y="196" width="28" height="28" fill="rgb(185, 127, 255)" /><rect x="56" y="196" width="28" height="28" fill="rgb(148, 79, 240)" /><rect x="84" y="196" width="28" height="28" fill="rgb(109, 46, 199)" /><rect x="112" y="196" width="28" height="28" fill="rgb(79, 29, 153)" /><rect x="140" y="196" width="28" height="28" fill="rgb(54, 17, 104)" /><rect x="168" y="196" width="28" height="28" fill="rgb(34, 10, 66)" /><rect x="196" y="196" width="28" height="28" fill="rgb(19, 5, 33)" /></svg>
