<svg xmlns="http://www.w3.org/2000/svg" viewBox="0 0 160 160" width="160" height="160" shape-rendering="crispEdges" role="img" aria-label="PixelScript pixel art"><rect x="40" y="0" width="40" height="20" fill="rgb(255, 255, 255)" /><rect x="40" y="20" width="40" height="20" fill="rgb(255, 224, 138)" /><rect x="40" y="40" width="40" height="20" fill="rgb(255, 255, 255)" /><rect x="20" y="60" width="20" height="20" fill="rgb(155, 99, 0)" /><rect x="40" y="60" width="60" height="20" fill="rgb(27, 200, 175)" /><rect x="100" y="60" width="20" height="20" fill="rgb(155, 99, 0)" /><rect x="0" y="80" width="20" height="20" fill="rgb(155, 99, 0)" /><rect x="20" y="80" width="20" height="20" fill="rgb(27, 200, 175)" /><rect x="40" y="80" width="60" height="20" fill="rgb(148, 79, 240)" /><rect x="100" y="80" width="20" height="20" fill="rgb(27, 200, 175)" /><rect x="120" y="80" width="20" height="20" fill="rgb(155, 99, 0)" /><rect x="0" y="100" width="20" height="20" fill="rgb(155, 99, 0)" /><rect x="20" y="100" width="20" height="20" fill="rgb(27, 200, 175)" /><rect x="40" y="100" width="60" height="20" fill="rgb(148, 79, 240)" /><rect x="100" y="100" width="20" height="20" fill="rgb(27, 200, 175)" /><rect x="120" y="100" width="20" height="20" fill="rgb(155, 99, 0)" /><rect x="20" y="120" width="20" height="20" fill="rgb(155, 99, 0)" /><rect x="40" y="120" width="60" height="20" fill="rgb(27, 200, 175)" /><rect x="100" y="120" width="20" height="20" fill="rgb(155, 99, 0)" /><rect x="40" y="140" width="40" height="20" fill="rgb(155, 99, 0)" /></svg>
